<?xml version="1.0" encoding="UTF-8" standalone="no"?>
<!DOCTYPE svg PUBLIC "-//W3C//DTD SVG 1.1//EN" "http://www.w3.org/Graphics/SVG/1.1/DTD/svg11.dtd">
<svg width="100%" height="100%" viewBox="0 0 1024 1024" version="1.1" xmlns="http://www.w3.org/2000/svg" xmlns:xlink="http://www.w3.org/1999/xlink" xml:space="preserve" style="fill-rule:evenodd;clip-rule:evenodd;stroke-linejoin:round;stroke-miterlimit:2;">
    <path d="M310.229,60.138C316.291,50.913 328.702,48.345 337.927,54.407C347.152,60.469 349.719,72.88 343.658,82.105C301.946,145.58 260.436,209.441 219.826,273.881C187.571,325.064 151.267,374.55 130.891,432.051C124.444,450.246 116.869,477.909 117.725,502.862C118.361,521.384 123.515,538.885 143.159,544.23C169.567,551.417 196.204,542.135 222.18,529.861C253.034,515.283 282.918,495.955 310.259,485.198C327.576,478.384 351.068,470.09 372.493,470.008C390.729,469.939 407.62,475.349 420.582,489.032C448.492,518.495 450.052,564.491 450.052,602.153C450.052,658.938 427.837,780.663 446.501,865.966C452.848,894.976 463.71,919.591 484.417,933.173C497.677,941.87 514.825,945.604 536.617,943.79C552.459,942.472 568.863,936.248 583.273,930.037C610.8,918.173 635.254,900.324 659.671,883.196C700.264,854.722 738.513,823.976 774.439,789.796C827.78,739.048 882.418,688.646 932.93,635.057C940.502,627.024 953.17,626.65 961.202,634.221C969.235,641.793 969.609,654.461 962.038,662.493C911.029,716.609 855.875,767.529 802.01,818.776C764.64,854.329 724.866,886.325 682.642,915.943C655.998,934.632 629.142,953.825 599.105,966.771C580.876,974.627 559.975,981.985 539.935,983.653C507.49,986.353 482.219,979.568 462.479,966.62C433.684,947.733 416.252,914.856 407.425,874.515C388.158,786.452 410.052,660.775 410.052,602.153C410.052,586.731 410.246,569.494 407.487,553.101C405.206,539.553 400.987,526.511 391.542,516.541C384.809,509.432 375.059,509.313 365.395,510.49C351,512.243 336.31,517.932 324.904,522.42C292.512,535.165 256.552,560.193 219.591,574.541C190.859,585.694 161.545,590.688 132.655,582.827C100.833,574.167 85.265,551.484 79.837,523.39C73.201,489.041 83.71,445.442 93.188,418.691C114.556,358.39 152.16,306.231 185.986,252.555C226.731,187.9 268.379,123.825 310.229,60.138Z" style="fill:rgb(192,192,192);"/>
    <g transform="matrix(1,0,0,1,0,-27.7346)">
        <path d="M749.993,351.158C843.694,429.501 848.997,580.14 791.773,684.553C733.865,790.212 600.903,877.621 469.97,892.51C377.044,903.076 285.793,878.331 219.89,804.376C169.237,747.535 161.269,668.801 165.253,596.607C173.557,446.101 255.879,306.38 387.368,232.74C505.548,166.553 671.065,176.165 748.516,300.97C758.312,316.755 758.239,335.895 749.993,351.158ZM649.179,334.586C596.494,276.504 503.48,282.326 436.231,319.988C334.455,376.988 271.529,485.62 265.101,602.116C262.526,648.789 261.801,701.099 294.547,737.846C349.3,799.288 431.532,805.204 507.952,783.187C590.105,759.519 667.374,703.465 704.079,636.492C743.712,564.177 745.654,453.172 663.964,413.869C639.096,401.905 628.621,372.002 640.585,347.135C642.856,342.415 645.773,338.214 649.179,334.586Z"/>
    </g>
    <g transform="matrix(1,0,0,1,0,-27.7346)">
        <path d="M811.07,776.384C824.986,778.406 837.923,786.249 846.002,798.858C845.577,798.205 845.092,797.508 844.538,796.795L855.284,813.338L860.069,835.219L856.475,854.047L851.627,863.306L843.423,872.821L828.279,882.228L806.97,885.697L792.466,882.74L772.765,870.244C774.349,871.68 775.976,872.814 777.167,873.608C771.883,870.085 766.537,866.721 761.2,863.283C743.416,851.825 726.946,838.567 710.945,824.772C670.632,790.016 637.399,747.537 596.366,713.817C575.045,696.296 571.961,664.762 589.481,643.442C607.002,622.122 638.536,619.037 659.856,636.558C701.495,670.776 735.333,713.764 776.242,749.033C787.432,758.68 798.834,768.097 811.07,776.384ZM837.398,794.232L840.961,797.099C839.802,796.052 838.611,795.1 837.398,794.232ZM766.433,859.008C766.902,859.725 767.403,860.433 767.941,861.127L766.433,859.008ZM846.002,798.858C846.521,799.655 846.95,800.387 847.304,801.005C846.886,800.275 846.451,799.559 846.002,798.858Z"/>
    </g>
</svg>
